<svg xmlns="http://www.w3.org/2000/svg" viewBox="0 0 100 125">
  <path d="M28.854 38.146l1.972 1.973 4.014-4.935a.5.5 0 1 1 .776.632l-4.364 5.364a.5.5 0 0 1-.742.038l-2.364-2.364a.5.5 0 0 1 .708-.708zm0 12l1.972 1.973 4.014-4.935a.5.5 0 1 1 .776.632l-4.364 5.364a.5.5 0 0 1-.742.038l-2.364-2.364a.5.5 0 0 1 .708-.708zm0 12l1.972 1.973 4.014-4.935a.5.5 0 1 1 .776.632l-4.364 5.364a.5.5 0 0 1-.742.038l-2.364-2.364a.5.5 0 0 1 .708-.708zM41.364 51.5a.5.5 0 0 1 0-1h30a.5.5 0 1 1 0 1h-30zm0 12a.5.5 0 0 1 0-1h30a.5.5 0 1 1 0 1h-30zm0-24a.5.5 0 0 1 0-1h30a.5.5 0 1 1 0 1h-30z"/>
</svg>
