<svg xmlns="http://www.w3.org/2000/svg" xmlns:xlink="http://www.w3.org/1999/xlink" version="1.1" x="0px" y="0px" viewBox="0 0 100 125" style="enable-background:new 0 0 100 100;" xml:space="preserve"><path d="M74.1,19.3c-0.4-1.1-3.8-5.9-6.4-8.1c-2.6-2.1-5.3-1.9-8.2-1.9C58.3,7.9,57,7,55.8,6.4c-1.9-1-4.2-2.1-7.1-2.1  c-3.1,0-5.3,1-7.1,2.1c-1.1,0.6-2.4,1.5-3.5,2.9c-2.9,0-5.6-0.2-8.1,1.9c-2.6,2.2-6.1,7-6.4,8.1c-0.5,1.6-0.5,2.6,0.2,3.2  c0.4,0.4,1,0.6,1.2,0.7c0.2,0,0.9,0,1.4-0.3c0.3-0.2,3.2-2.9,5.3-4.4c0.8-0.6,2.2-1,3.5-1.1l-3.1,49.7c0,2.8-7.9,21.6,6,23.2  c0.2,1.1,0.4,2.2,0.4,3c0,3.5,7,2.7,7-0.8c0-0.6-0.1-1.3-0.3-2.1h7.5c-0.2,0.8-0.3,1.5-0.3,2.1c0,3.5,7,4.3,7,0.8  c0-0.9,0.2-1.9,0.4-3c13.8-1.7,5.8-20.4,5.8-23.2l-3.1-49.7c1.4,0.1,2.8,0.4,3.7,1.1c2,1.6,4.9,4.2,5.3,4.4c0.5,0.3,1.1,0.3,1.4,0.3  c0.2,0,0.8-0.3,1.2-0.7C74.5,21.9,74.6,20.9,74.1,19.3z M52.7,19.2c0.7,0,1.2,0.5,1.2,1.2c0,0.7-0.5,1.2-1.2,1.2  c-0.7,0-1.2-0.5-1.2-1.2C51.5,19.7,52.1,19.2,52.7,19.2z M46.1,17.9c1.4,0,2.5,1.1,2.5,2.5c0,1.4-1.1,2.5-2.5,2.5  c-1.4,0-2.5-1.1-2.5-2.5C43.6,19,44.8,17.9,46.1,17.9z M39.4,25.7h18.8c0.2,0,0.4,0.2,0.4,0.4s-0.2,0.4-0.4,0.4h-1  c-0.3,1-1.2,3.2-1.2,3.2l-1.1-3.2H42.7l-1.1,3.2c0,0-0.8-2.3-1.2-3.2h-1c-0.2,0-0.4-0.2-0.4-0.4S39.2,25.7,39.4,25.7z"/><text x="0" y="115" fill="#000000" font-size="5px" font-weight="bold" font-family="'Helvetica Neue', Helvetica, Arial-Unicode, Arial, Sans-serif">Created by tk66</text><text x="0" y="120" fill="#000000" font-size="5px" font-weight="bold" font-family="'Helvetica Neue', Helvetica, Arial-Unicode, Arial, Sans-serif">from the Noun Project</text></svg>